<?xml version="1.0" encoding="UTF-8"?>
<!DOCTYPE svg PUBLIC "-//W3C//DTD SVG 1.1//EN" "http://www.w3.org/Graphics/SVG/1.1/DTD/svg11.dtd">
<!-- Creator: CorelDRAW -->
<svg xmlns="http://www.w3.org/2000/svg" xml:space="preserve" width="12mm" height="15mm" version="1.1" style="shape-rendering:geometricPrecision; text-rendering:geometricPrecision; image-rendering:optimizeQuality; fill-rule:evenodd; clip-rule:evenodd"
viewBox="0 0 1200 1500"
 xmlns:xlink="http://www.w3.org/1999/xlink"
 xmlns:xodm="http://www.corel.com/coreldraw/odm/2003">
 <defs>
  <style type="text/css">
   <![CDATA[
    .str0 {stroke:#848688;stroke-width:50;stroke-miterlimit:22.9256}
    .fil1 {fill:#4B4B4D}
    .fil0 {fill:#373435}
   ]]>
  </style>
 </defs>
 <g id="Camada_x0020_1">
  <metadata id="CorelCorpID_0Corel-Layer"/>
  <path class="fil0" d="M906.67 405.43c75.49,0 136.69,61.2 136.69,136.69 0,75.49 -61.2,136.69 -136.69,136.69 -75.49,0 -136.69,-61.2 -136.69,-136.69 0,-75.49 61.2,-136.69 136.69,-136.69zm-773.12 -363.61l543.61 0c0,227.46 0,454.91 0,682.37 -126.23,45.37 -136.76,159.01 -132.13,281.93l-488.29 0 0 -213.88 296.94 -3.07c55.43,-10.79 65.26,-43.3 43.24,-90.97l-340.18 4.16 0 -123.26 307.85 0c52.75,-26.6 43.98,-63.45 0.52,-106.1l-308.37 0.27 0 -358.35c0.7,-44.29 23.94,-70.55 76.81,-73.1zm190.95 174.58l-0.9 -95.46 100.03 0 0.02 94.5 93.65 -1.74 0 93.67 -96.07 2.98 0.58 93.41 -96.39 0 -0.88 -92.76 -90.06 -0.9 0 -94.58 90.02 0.88z"/>
  <path class="fil0" d="M736.81 805.22l333.56 0c36.53,10.68 67.99,29.19 87.24,66.47l0 133.53 -521.12 0 0 -131.23c19.1,-39.65 53.16,-61.84 100.32,-68.77z"/>
  <path class="fil1 str0" d="M710.1 1222.72c-53.13,46.49 -122.74,74.66 -198.93,74.66 -167.07,0 -302.51,-135.44 -302.51,-302.52 0,-167.07 135.44,-302.51 302.51,-302.51 167.08,0 302.52,135.44 302.52,302.51 0,72.22 -25.31,138.54 -67.69,191.58l186.6 195.33c9.56,9.96 9.25,25.94 -0.72,35.52l0 0c-9.95,9.57 -25.94,9.26 -35.51,-0.7l-186.27 -193.87zm-198.93 -454.14c124.98,0 226.29,101.31 226.29,226.28 0,124.98 -101.31,226.29 -226.29,226.29 -124.97,0 -226.28,-101.31 -226.28,-226.29 0,-124.97 101.31,-226.28 226.28,-226.28z"/>
 </g>
</svg>
